<svg xmlns="http://www.w3.org/2000/svg" viewBox="0 0 64 64" fill="none">
  <defs>
    <linearGradient id="lg" x1="0" y1="0" x2="1" y2="1">
      <stop offset="0" stop-color="#7b93ff"/>
      <stop offset="1" stop-color="#3a57e0"/>
    </linearGradient>
  </defs>
  <rect width="64" height="64" rx="16" fill="url(#lg)"/>
  <path d="M20 13h17l9 9v29a2 2 0 0 1-2 2H20a2 2 0 0 1-2-2V15a2 2 0 0 1 2-2z" fill="#fff"/>
  <path d="M37 13v7a2 2 0 0 0 2 2h7z" fill="#c7d2fe"/>
  <rect x="23" y="27" width="12" height="3.5" rx="1.75" fill="#4f6ef7"/>
  <rect x="23" y="34" width="18" height="3" rx="1.5" fill="#c7d2fe"/>
  <rect x="23" y="40" width="10" height="3" rx="1.5" fill="#c7d2fe"/>
  <circle cx="44" cy="45" r="8" fill="#10b981" stroke="#fff" stroke-width="2.5"/>
  <path d="M40.5 45.2l2.4 2.4 4.6-4.8" stroke="#fff" stroke-width="2.4" stroke-linecap="round" stroke-linejoin="round"/>
</svg>
